<?xml version="1.0" standalone="no"?>
<!DOCTYPE svg PUBLIC "-//W3C//DTD SVG 20010904//EN"
 "http://www.w3.org/TR/2001/REC-SVG-20010904/DTD/svg10.dtd">
<svg version="1.0" xmlns="http://www.w3.org/2000/svg"
 width="512.000000pt" height="512.000000pt" viewBox="0 0 512.000000 512.000000"
 preserveAspectRatio="xMidYMid meet">
<metadata>
Created by potrace 1.14, written by Peter Selinger 2001-2017
</metadata>
<g transform="translate(0.000000,512.000000) scale(0.100000,-0.100000)"
fill="#000000" stroke="none">
<path d="M1345 5113 c-146 -19 -331 -73 -460 -133 -380 -176 -685 -521 -813
-920 -71 -223 -67 -129 -67 -1500 0 -1369 -4 -1282 66 -1500 77 -238 192 -424
378 -611 236 -236 502 -375 822 -430 111 -19 159 -19 1330 -16 1201 3 1215 3
1304 24 317 76 544 201 766 422 236 236 375 502 430 822 19 111 19 159 16
1330 -3 1213 -3 1214 -25 1304 -31 124 -68 235 -112 330 -175 379 -522 685
-920 813 -222 71 -113 66 -1465 68 -671 1 -1233 -1 -1250 -3z m973 -1733 c111
-18 171 -47 237 -114 71 -72 115 -155 146 -279 l22 -87 41 0 41 0 17 65 c35
133 113 256 205 324 150 111 394 130 567 44 146 -73 248 -274 276 -544 5 -56
10 -317 10 -580 l0 -479 -210 0 -209 0 -3 538 c-3 474 -6 543 -21 588 -25 75
-56 115 -112 143 -43 23 -62 26 -150 26 -89 0 -106 -3 -156 -28 -139 -68 -222
-221 -249 -462 -5 -49 -10 -251 -10 -447 l0 -358 -204 0 -205 0 -4 523 c-3
421 -7 533 -19 577 -26 97 -56 138 -128 176 -27 15 -57 19 -135 19 -93 0 -105
-2 -167 -33 -81 -40 -129 -91 -173 -187 -65 -140 -68 -164 -72 -642 l-4 -433
-210 0 -209 0 0 810 0 810 210 0 210 0 0 -97 c0 -83 -5 -115 -35 -213 -19 -63
-37 -121 -40 -127 -3 -10 12 -13 54 -13 l58 0 18 67 c52 190 178 338 331 388
103 33 185 40 282 25z"/>
</g>
</svg>
