<svg width="51" height="44" viewBox="0 0 51 44" fill="none" xmlns="http://www.w3.org/2000/svg">
<path fill-rule="evenodd" clip-rule="evenodd" d="M18.3192 4.38395e-05C19.1292 -0.00495605 19.8817 0.418026 20.2984 1.11261L25.2083 9.2958L30.1182 1.11261C30.535 0.418026 31.2875 -0.00495605 32.0975 4.38395e-05C32.9075 0.00504359 33.6547 0.437283 34.0628 1.13696L50.1045 28.637C50.518 29.3458 50.5209 30.2215 50.1122 30.9331C49.7035 31.6446 48.9456 32.0833 48.125 32.0833H43.5417V41.25C43.5417 42.5157 42.5157 43.5417 41.25 43.5417H29.7917C28.526 43.5417 27.5 42.5157 27.5 41.25V29.7917C27.5 28.526 28.526 27.5 29.7917 27.5H30.426L25.2083 18.369L19.9906 27.5H20.625C21.8907 27.5 22.9167 28.526 22.9167 29.7917V41.25C22.9167 42.5157 21.8907 43.5417 20.625 43.5417H9.16667C7.90101 43.5417 6.875 42.5157 6.875 41.25V32.0833H2.29167C1.4711 32.0833 0.713158 31.6446 0.304466 30.9331C-0.104226 30.2215 -0.101286 29.3458 0.312173 28.637L16.3538 1.13696C16.762 0.437283 17.5092 0.00504359 18.3192 4.38395e-05ZM18.3333 32.0833H16.0417C15.2248 32.0833 14.4696 31.6485 14.0596 30.9419C13.6496 30.2354 13.6466 29.364 14.0519 28.6547L22.5528 13.7782L18.3611 6.79217L6.28154 27.5H9.16667C10.4323 27.5 11.4583 28.526 11.4583 29.7917V38.9583H18.3333V32.0833ZM27.8639 13.7782L36.3647 28.6547C36.77 29.364 36.7671 30.2354 36.3571 30.9419C35.9471 31.6485 35.1919 32.0833 34.375 32.0833H32.0833V38.9583H38.9583V29.7917C38.9583 28.526 39.9843 27.5 41.25 27.5H44.1351L32.0556 6.79217L27.8639 13.7782Z" fill="#CBCBCB"/>
</svg>
