<svg width="197" height="49" viewBox="0 0 197 49" fill="none" xmlns="http://www.w3.org/2000/svg">
<path d="M42.5549 14.5772C46.2155 14.5772 48.8956 15.9499 50.5952 18.6954C52.2948 21.4409 53.1446 25.0579 53.1446 29.5465V48.0458H44.712V30.4617C44.712 27.2369 44.3198 25.0143 43.5354 23.7941C42.751 22.5303 41.2693 21.8984 39.0903 21.8984C33.5558 21.8984 30.7885 26.3871 30.7885 35.3643V48.0458H22.356V30.4617C22.356 27.2369 21.9638 25.0143 21.1794 23.7941C20.395 22.5303 18.9133 21.8984 16.7343 21.8984C11.1998 21.8984 8.43253 26.3871 8.43253 35.3643V48.0458H0V15.2308H8.43253V19.4798L6.92906 24.4478H9.08622C10.5679 17.8674 14.2721 14.5772 20.1989 14.5772C25.6462 14.5772 28.8929 17.8674 29.9388 24.4478H31.5076C32.9893 17.8674 36.6717 14.5772 42.5549 14.5772Z" fill="black"/>
<path d="M58.1597 39.025C58.1597 36.1923 59.0967 33.948 60.9706 32.292C62.8881 30.636 66.0258 29.5465 70.3837 29.0236L81.7578 27.6509C81.627 23.5544 79.0995 21.5062 74.175 21.5062C71.8653 21.5062 70.0132 22.0292 68.6187 23.0751C67.2678 24.0774 66.5923 25.6026 66.5923 27.6509H58.6173C58.6173 23.7723 60.0554 20.6346 62.9317 18.2378C65.8079 15.7974 69.5557 14.5772 74.175 14.5772C78.9251 14.5772 82.7819 15.8845 85.7452 18.4993C88.7086 21.0704 90.1903 24.7746 90.1903 29.6119V40.7246H94.9622V48.0458H88.2946C86.8565 48.0458 85.7452 47.6536 84.9608 46.8692C84.22 46.0848 83.8496 44.9953 83.8496 43.6008V42.4895L85.1569 38.7635H82.9344C81.3656 45.3875 76.9641 48.6995 69.73 48.6995C67.3767 48.6995 65.3721 48.3727 63.7161 47.719C62.1036 47.0653 60.927 46.1937 60.1862 45.1042C59.4453 44.0148 58.9224 42.9907 58.6173 42.0319C58.3123 41.0296 58.1597 40.0273 58.1597 39.025ZM66.5923 37.5869C66.5923 38.8507 67.0063 39.8094 67.8343 40.4631C68.7059 41.0732 69.8389 41.3782 71.2334 41.3782C74.4147 41.3782 76.9641 40.5938 78.8816 39.025C80.799 37.4126 81.7578 35.3208 81.7578 32.7496L71.8871 33.9916C70.0132 34.2095 68.6623 34.5799 67.8343 35.1029C67.0063 35.5822 66.5923 36.4102 66.5923 37.5869Z" fill="black"/>
<path d="M133.877 48.0458H125.445V44.9081L127.013 39.9401H124.791C122.83 45.7797 118.472 48.6995 111.717 48.6995C107.141 48.6995 103.524 47.0871 100.866 43.8622C98.2512 40.6374 96.9439 36.5628 96.9439 31.6383C96.9439 26.7139 98.2512 22.6393 100.866 19.4144C103.524 16.1896 107.141 14.5772 111.717 14.5772C118.472 14.5772 122.83 17.5187 124.791 23.4019H127.013L125.445 18.3685V0H133.877V48.0458ZM122.764 38.9596C124.551 37.3472 125.445 34.9068 125.445 31.6383C125.445 28.3699 124.551 25.9295 122.764 24.3171C120.978 22.7046 118.494 21.8984 115.312 21.8984C108.688 21.8984 105.376 25.1451 105.376 31.6383C105.376 38.1316 108.688 41.3782 115.312 41.3782C118.494 41.3782 120.978 40.572 122.764 38.9596Z" fill="black"/>
<path d="M143.698 44.1237C140.342 41.0732 138.664 36.9114 138.664 31.6383C138.664 26.3653 140.342 22.2035 143.698 19.153C147.053 16.1024 151.39 14.5772 156.706 14.5772C161.979 14.5772 166.294 16.1024 169.649 19.153C173.005 22.2035 174.683 26.3653 174.683 31.6383C174.683 36.9114 173.005 41.0732 169.649 44.1237C166.294 47.1742 161.979 48.6995 156.706 48.6995C151.39 48.6995 147.053 47.1742 143.698 44.1237ZM149.646 24.5132C147.947 26.2563 147.097 28.6314 147.097 31.6383C147.097 34.6453 147.947 37.0203 149.646 38.7635C151.346 40.5067 153.699 41.3782 156.706 41.3782C159.713 41.3782 162.066 40.5067 163.766 38.7635C165.466 37.0203 166.315 34.6453 166.315 31.6383C166.315 28.6314 165.466 26.2563 163.766 24.5132C162.066 22.77 159.713 21.8984 156.706 21.8984C153.699 21.8984 151.346 22.77 149.646 24.5132Z" fill="black"/>
<path d="M189.503 48.8956C187.586 48.8956 186.017 48.2855 184.797 47.0653C183.62 45.8015 183.032 44.2326 183.032 42.3587C183.032 40.5284 183.62 39.0032 184.797 37.783C186.017 36.5627 187.586 35.9526 189.503 35.9526C191.377 35.9526 192.924 36.5627 194.144 37.783C195.408 39.0032 196.04 40.5284 196.04 42.3587C196.04 44.2326 195.408 45.8015 194.144 47.0653C192.924 48.2855 191.377 48.8956 189.503 48.8956Z" fill="#809FB4"/>
</svg>
